<?xml version="1.0" encoding="utf-8"?>
<!-- Generator: Adobe Illustrator 25.4.1, SVG Export Plug-In . SVG Version: 6.00 Build 0)  -->
<svg version="1.1" id="Graphic_Elements" xmlns="http://www.w3.org/2000/svg" xmlns:xlink="http://www.w3.org/1999/xlink" x="0px"
	 y="0px" viewBox="0 0 1200 1200" style="enable-background:new 0 0 1200 1200;" xml:space="preserve">
<style type="text/css">
	.st0{fill:#FFFFFE;}
	.st1{opacity:0;}
	.st2{fill:#4D4E4C;}
</style>
<path class="st0" d="M954.2,336.7c-32,76.4-73.7,246.8-107.6,220.5c-17.9-14,44.7-203.8,56.4-338.6c7.5-86.6-76.3-75-90.3-22.6
	c-16.1,60.6-65.7,327.3-75.2,327.3c-26.3,0,0.8-310.3,0.3-394.6c-0.5-91.1-98.6-79.6-108.4-9c-6.8,49.2-27.4,404.7-36.8,405.6
	c-24.9,2.3-74.7-250.5-83.1-312.2C495.9,113.8,391,121,400,234c6.5,81.9,55.9,307.5,55.9,307.5s20,154.1-8.1,179.6
	c-40.8,37-145.7-67.8-215.5-72.4c-51-3.4-102.5,46.6-56.5,87.6c21.7,19.3,159,108.1,228.5,179.7c27.4,58.6,112.2,105.4,112.2,105.4
	l12.2,115h295l3-96.4c0,0,47.7-37.6,99.8-139.8c18.2-35.7,35.4-195.7,35.4-241.4c0-33.9,57.1-239.1,76.6-301.1
	C1059.2,291.9,984,265.5,954.2,336.7"/>
<g class="st1">
	<path d="M954.2,336.7c-32,76.4-73.7,246.8-107.6,220.5c-17.9-14,44.7-203.8,56.4-338.6c7.5-86.6-76.3-75-90.3-22.6
		c-16.1,60.6-65.7,327.3-75.2,327.3c-26.3,0,0.8-310.3,0.3-394.6c-0.5-91.1-98.6-79.6-108.4-9c-6.8,49.2-27.4,404.7-36.8,405.6
		c-24.9,2.3-74.7-250.5-83.1-312.2C495.9,113.8,391,121,400,234c6.5,81.9,55.9,307.5,55.9,307.5s20,154.1-8.1,179.6
		c-40.8,37-145.7-67.8-215.5-72.4c-51-3.4-102.5,46.6-56.5,87.6c21.7,19.3,159,108.1,228.5,179.7c27.4,58.6,112.2,105.4,112.2,105.4
		l12.2,115h295l3-96.4c0,0,47.7-37.6,99.8-139.8c18.2-35.7,35.4-195.7,35.4-241.4c0-33.9,57.1-239.1,76.6-301.1
		C1059.2,291.9,984,265.6,954.2,336.7z"/>
</g>
<path class="st2" d="M823.7,1150h-295c-6.9,0-12.8-5.2-13.5-12.1l-11.5-108.2c-20.5-12.2-85.1-53.8-110.7-105.8
	c-48.4-49.3-131-108.2-180.6-143.6c-22.5-16.1-38.8-27.7-45.7-33.8c-21-18.7-27.6-42.3-18.2-64.6c12.2-29,48.6-49.1,84.7-46.6
	c33.3,2.2,71.2,23.6,107.9,44.3c38.3,21.6,81.7,46.1,97.6,31.6c13.6-12.3,13-96.3,3.8-167.2c-3.4-15.4-49.6-228.1-56-308.8
	c-3.7-47,13.2-99.8,59.3-104.8c32.4-3.5,69.2,23.2,77.1,80.9c8.5,62.3,40.7,217.6,62.7,278.4c5.6-50.1,13-151.4,18.4-224.2
	c5.1-69.2,9.5-129,12-147.6c6.2-45.1,43.3-69.7,75.8-67.7c27.3,1.8,59.3,23.4,59.6,78.5c0.2,25.6-2.2,70.7-4.8,122.9
	c-3.3,65-8.3,161.4-6.8,217.9c9.2-39.7,21.2-97.4,31-144.3c11.7-56.2,22.7-109.4,28.9-132.7c8.8-33.2,41.6-55.7,73-50.2
	c24.1,4.2,48.3,26.8,43.9,77.4c-5.8,66.3-23.8,146.2-38.3,210.4c-10.2,45-21.5,95.4-21.5,113.9c16.1-15.1,42-91.6,56.5-134.1
	c10-29.5,19.4-57.3,28.3-78.6l0,0c19.2-45.9,55.1-56.9,80.3-47.6c23.3,8.5,42.5,36.6,29.5,78c-20.8,66.2-76,266.8-76,297
	c0,42.9-16.6,207.7-36.9,247.5c-43.7,85.8-84.6,127.3-98.5,140l-2.8,90.4C837.1,1144.1,831.1,1150,823.7,1150z M540.9,1122.9h269.7
	l2.6-83.2c0.1-4,2-7.7,5.2-10.2c0.4-0.3,46.3-37.7,96.1-135.3c15.8-31,34-186.3,34-235.2c0-37.8,60.7-252.6,77.2-305.2
	c7.7-24.6-0.9-40-12.9-44.4c-13.5-4.9-33.7,3.2-46,32.6l0,0c-8.5,20.4-17.8,47.8-27.7,76.8c-30.6,90.2-51.2,145.6-78,153.7
	c-7.9,2.4-16.4,0.7-22.8-4.5c-14.6-11.3-10.4-37.3,13.5-143.7c14.3-63.4,32.1-142.3,37.7-206.8c2.5-27.9-5.5-45.5-21.5-48.4
	c-15.7-2.7-36.3,8.8-42.1,30.4c-6,22.6-17,75.3-28.6,131.2c-42.8,206.2-44.4,206.2-59.8,206.2c-4.8,0-9.4-2.1-12.7-5.6
	c-15.9-16.8-15.2-88.2-5.3-281.1c2.7-51.8,4.9-96.5,4.8-121.4c-0.2-30.9-13-50.2-34.3-51.6c-20.2-1.3-43,14.9-47.1,44.3
	c-2.5,17.8-6.8,77.1-11.8,145.9c-19.8,269.7-20.8,269.8-37.1,271.3c-15.9,1.4-30.6-8.1-62.2-142.5C514,321.3,500,243.7,496,214.9
	c-5.5-40.6-28-59.8-47.3-57.6c-19.7,2.1-39.1,26.7-35.2,75.6c6.4,80.1,55.1,303.4,55.6,305.7c0.1,0.4,0.1,0.8,0.2,1.2
	c4.9,37.8,18.5,163.3-12.4,191.4c-30.4,27.6-78.4,0.6-129.2-28.1c-34.1-19.2-69.3-39.1-96.4-40.9c-24.3-1.6-50.2,11.9-57.9,30
	c-4.8,11.5-1,22.9,11.3,33.9c5.9,5.2,22.4,17,43.4,32c54.1,38.6,135.9,97,185.8,148.4c1,1.1,1.9,2.3,2.5,3.7
	c25.2,53.8,105.7,98.9,106.5,99.3c3.9,2.2,6.5,6.1,6.9,10.5L540.9,1122.9z"/>
<path class="st0" d="M454.3,717.2c0,0,78.8,0,134.8,31.1s99.5,99.5,99.5,99.5"/>
<g class="st1">
	<path d="M454.3,717.2c0,0,78.8,0,134.8,31.1s99.5,99.5,99.5,99.5"/>
</g>
<path class="st2" d="M688.5,861.3c-4.7,0-9-2.4-11.5-6.3c-0.4-0.7-42.4-65.9-94.6-94.9S455,730.7,454.3,730.7
	c-7.5,0-13.6-6.1-13.6-13.6s6.1-13.6,13.6-13.6c3.4,0,83,0.4,141.3,32.8S698.1,837.6,700,840.5c4,6.3,2.2,14.7-4.2,18.7
	C693.7,860.6,691.1,861.3,688.5,861.3L688.5,861.3z"/>
</svg>
