<?xml version="1.0" encoding="utf-8"?>
<!-- Generator: Adobe Illustrator 25.4.1, SVG Export Plug-In . SVG Version: 6.00 Build 0)  -->
<svg version="1.1" id="Graphic_Elements" xmlns="http://www.w3.org/2000/svg" xmlns:xlink="http://www.w3.org/1999/xlink" x="0px"
	 y="0px" viewBox="0 0 1200 1200" style="enable-background:new 0 0 1200 1200;" xml:space="preserve">
<style type="text/css">
	.st0{fill:#FFFFFE;}
	.st1{opacity:0;}
	.st2{fill:#4D4E4C;}
</style>
<path class="st0" d="M817.5,1128H363.8l14.6-170.7c0,0-252.3-201.3-229.1-371.7c10.6-77.6,65.1-115,73.8-128.1
	c14.1-21.2,3.8-128.5,21.4-238C266.4,84,347.8,57.5,424.5,78.4c77.6,21.2,66.2,85.5,66.2,85.5s48.8-73.2,126.9-58.5
	c67.3,12.6,73.2,87.8,73.2,87.8s52.2-59.7,112.2-39c91.8,31.6,68.3,131.7,68.3,131.7s121.8-101,165.8,25.8s-19.5,208.1-30.8,306.2
	c-30.5,265.2-183.7,354-183.7,354L817.5,1128z"/>
<g class="st1">
	<path d="M817.5,1128H363.8l14.6-170.7c0,0-252.3-201.3-229.1-371.7c10.6-77.6,65.1-115,73.8-128.1c14.1-21.2,3.8-128.5,21.4-238
		C266.4,84,347.8,57.5,424.5,78.4c77.6,21.2,66.2,85.5,66.2,85.5s48.8-73.2,126.9-58.5c67.3,12.6,73.2,87.8,73.2,87.8
		s52.2-59.7,112.2-39c91.8,31.6,68.3,131.7,68.3,131.7s121.8-101,165.8,25.8s-19.5,208.1-30.8,306.2
		c-30.5,265.2-183.7,354-183.7,354L817.5,1128z"/>
</g>
<path class="st2" d="M817.5,1150H363.8c-12.2,0-22-9.9-22-22c0-0.6,0-1.2,0.1-1.8l13.7-159.2c-46.9-39.5-250.2-220.9-228-384.3
	c9.4-69.2,50.2-109.9,69.8-129.5c3-3,6.7-6.7,7.6-8c3.4-7.2,4.6-42,5.5-72.7c1.5-44.4,3.2-99.7,12.4-156.4
	c11.1-69,37.7-117.4,79-144.1c35.5-22.9,79.9-28,128.4-14.7c42.5,11.6,64.7,35.3,75.1,59.2c25.7-21.1,65.3-42.1,116.2-32.6
	c44.9,8.4,69.5,40.2,81.6,69.7c25-17.4,63.7-35,106.9-20.1c61.2,21,81.9,69.5,85.5,110.9c25.3-12.9,59.8-24.3,92.6-15.1
	c31.9,8.9,55.3,34.3,69.5,75.4c32.1,92.9,10.4,164.9-8.8,228.4c-9,29.8-17.5,58-20.9,87.5C1000.9,855.8,880.9,957.8,844,984
	l-4.5,144.7C839.1,1140.6,829.4,1150,817.5,1150z M387.8,1106h408.4l4.2-134.8c0.2-7.6,4.4-14.5,11-18.3
	c1.4-0.8,144.2-87.7,172.9-337.5c3.8-33.5,13.3-64.8,22.5-95.2c19-62.7,36.9-121.9,9.4-201.3c-9.2-26.6-22.6-42.6-39.8-47.4
	c-38.7-10.9-90.6,30.9-91.1,31.3c-9.4,7.7-23.2,6.4-31-2.9c-4.4-5.3-6-12.4-4.5-19.1c1.9-8.2,16.3-81.7-54-105.9
	c-45.5-15.6-88.1,32.2-88.5,32.7c-8,9.1-21.9,10-31,2c-4.3-3.8-7-9.1-7.4-14.8c-0.2-2.3-5.7-58.6-55.3-67.9
	C551,115.2,510.7,173.6,509,176.1c-6.8,10.1-20.4,12.8-30.5,6.1c-7.2-4.8-11-13.5-9.4-22.1c1.1-7.3,4.1-45.6-50.3-60.5
	c-25.2-6.9-61.8-10.8-93,9.3c-30.4,19.6-50.3,58-59.4,114.1c-8.7,54-10.4,107.7-11.8,150.9c-1.8,55.6-3,80.8-13,95.8
	c-3,4.5-7.2,8.7-13,14.5c-17.4,17.4-49.9,49.9-57.3,104.3c-21.3,156.2,218.6,349.7,221,351.6c5.7,4.6,8.8,11.7,8.2,19.1L387.8,1106z
	"/>
<path class="st0" d="M472.8,181.8c0,0-113.2,307.9-5.4,327.7c121.4,22.4,163.8-39.3,167.4-87.2c4.9-63.2,47-236.9,47-236.9
	s-113.7,359.9,5.4,376.2c123.9,16.9,118.2-88.1,135.3-135.3s42.1-172.1,42.1-172.1s-53.3,204.6-65.2,251.1
	c-25.5,99.5,161.1,208.1,192.8-57.4l21.7-8.1"/>
<g class="st1">
	<path d="M472.8,181.8c0,0-113.2,307.9-5.4,327.7c121.4,22.4,163.8-39.3,167.4-87.2c4.9-63.2,47-236.9,47-236.9
		s-113.7,359.9,5.4,376.2c123.9,16.9,118.2-88.1,135.3-135.3s42.1-172.1,42.1-172.1s-53.3,204.6-65.2,251.1
		c-25.5,99.5,161.1,208.1,192.8-57.4l21.7-8.1"/>
</g>
<path class="st2" d="M883.9,636.2c-24.6,0-49.3-9.7-70-28.2c-13.3-11.8-23.8-26.4-30.7-42.8c-21.8,15.8-53,24.4-99,18.1
	c-22-3-40.1-14.9-52.4-34.3c-7.8-12.2-13-27.5-16.3-44.7c-1.3,1.1-2.5,2.1-3.9,3.1c-24.4,18.8-70,38.1-148.3,23.7
	c-21-3.9-37.9-16-48.8-35.2c-47.7-83.7,28.6-297.6,37.5-321.7c4.6-11.2,17.5-16.6,28.7-12c10.7,4.4,16.1,16.2,12.6,27.2
	c-30.8,83.7-69,235-40.6,284.7c4.5,8,10.3,12.2,18.6,13.8c49.4,9.1,88.7,3.8,113.5-15.3c13.6-10.5,23.1-25.5,26.6-42.4
	c4.6-105.8,43.2-231.8,49.4-251.4c3.9-11.5,16.4-17.7,27.9-13.8c10.6,3.6,16.9,14.6,14.4,25.6c-0.4,1.7-41.8,172.7-46.5,233.4
	c-0.3,4.1-0.8,8.1-1.6,12.1c-2.1,53.3,6.7,78.1,13.9,89.4c5.5,8.6,12,13,21.2,14.3c50.2,6.8,73-6.9,86.7-34.9c0.3-1.7,0.7-3.3,1.1-5
	c12-46.6,65.3-251.2,65.3-251.2c3.3-11.7,15.4-18.5,27.1-15.2c10.9,3.1,17.7,13.9,15.7,25.1c-1,5.2-25.5,127-43,175.3
	c-2.7,7.4-5,17.6-7.3,28.4c-3.7,16.5-8.2,36.6-16.5,55.8c-2.3,20.1,6.6,41.9,23.9,57.4c17.5,15.7,39.2,20.9,58,13.8
	c34.6-13,59.8-65.5,69.1-143.8c1-8.2,6.4-15.1,14.1-18l21.7-8.1c11.6-3.8,24,2.6,27.7,14.1c3.5,10.8-1.8,22.6-12.3,27l-9.3,3.5
	c-16.4,113.5-60.6,153.2-95.5,166.3C906.2,634.1,895.1,636.2,883.9,636.2z"/>
<path class="st0" d="M386.2,695.4c0,0,37.8-76.2,95.5-82.8c282.4-32.1,212.4-266.8,15.3-236.8c-292.8,44.6-343.3,174.4-343.3,174.4"
	/>
<g class="st1">
	<path d="M386.2,695.4c0,0,37.8-76.2,95.5-82.8c282.4-32.1,212.4-266.8,15.3-236.8c-292.8,44.6-343.3,174.4-343.3,174.4"/>
</g>
<path class="st2" d="M386.1,717.4c-12.2,0-22-9.9-22-22c0-3.4,0.8-6.7,2.3-9.7c1.8-3.5,43.9-87,112.7-94.8
	c85.4-9.7,144.9-40.2,163.1-83.7c9.8-23.4,6-48.8-10.4-69.9c-26-33.4-75.3-48.3-131.7-39.7C226.6,439.2,174.5,557.3,174,558.5
	c-4.9,11.1-17.8,16.2-29,11.3c-10.6-4.6-15.8-16.6-11.9-27.5c2.2-5.8,58.6-142.2,360.5-188.2c72.4-11,137,10,173,56.1
	c26.1,33.5,32.2,76.1,16.3,114c-14.5,34.4-59.5,94.5-198.7,110.3c-44.5,5-78,70-78.3,70.7C402.2,712.7,394.5,717.4,386.1,717.4z"/>
</svg>
