<?xml version="1.0" encoding="utf-8"?>
<!-- Generator: Adobe Illustrator 25.4.1, SVG Export Plug-In . SVG Version: 6.00 Build 0)  -->
<svg version="1.1" id="Graphic_Elements" xmlns="http://www.w3.org/2000/svg" xmlns:xlink="http://www.w3.org/1999/xlink" x="0px"
	 y="0px" viewBox="0 0 1200 1200" style="enable-background:new 0 0 1200 1200;" xml:space="preserve">
<style type="text/css">
	.st0{fill:#FFFFFE;}
	.st1{opacity:0;}
	.st2{fill:#4D4E4C;}
</style>
<path class="st0" d="M724.8,1135.6H427.3l9.6-112c0,0-119.5-147.8-103.1-259.4c21.6-146.9,20.9-225.5,20.9-225.5
	s-17.5-296.5-19.1-383.8c-2-106.4,116.9-122.2,128.9-17.4c15.8,139,38.9,402.7,38.9,402.7c20.7-52.3,92.5-336.6,108.6-402.7
	c27.8-114.1,143.5-80.3,132.8,3.1c-16.2,126.6-103.1,365-103.1,365s34.3-39.1,73.6-25.6c60.2,20.8,44.8,86.4,44.8,86.4
	s63.4-36.1,92.2,47.1s11.7,124.5-3.7,187.4C819.8,919.4,728,1033.2,728,1033.2L724.8,1135.6z"/>
<g class="st1">
	<path d="M724.8,1135.6H427.3l9.6-112c0,0-119.5-147.8-103.1-259.4c21.6-146.9,20.9-225.5,20.9-225.5s-17.5-296.5-19.1-383.8
		c-2-106.4,116.9-122.2,128.9-17.4c15.8,139,38.9,402.7,38.9,402.7c20.7-52.3,92.5-336.6,108.6-402.7
		c27.8-114.1,143.5-80.3,132.8,3.1c-16.2,126.6-103.1,365-103.1,365s34.3-39.1,73.6-25.6c60.2,20.8,44.8,86.4,44.8,86.4
		s63.4-36.1,92.2,47.1s11.7,124.5-3.7,187.4C819.8,919.4,728,1033.2,728,1033.2L724.8,1135.6z"/>
</g>
<path class="st2" d="M724.8,1150H427.3c-8,0-14.4-6.5-14.4-14.4c0-0.4,0-0.8,0.1-1.2L422,1028c-20.7-26.8-118.2-159.5-102.5-266
	c21.2-143.8,20.7-222.5,20.7-223.2c-0.2-2.2-17.5-297-19.2-383.6C319.9,91,358.6,54.8,397.5,52.2c35.5-2.2,74.3,22.6,81.2,83.7
	c10.5,92.7,24.4,242.1,32.5,330.7C540.4,364,584.8,188,597.9,134.1c16.3-67,61.8-89.9,99.5-82.9c46.5,8.6,66.4,53.4,61.6,91.3
	c-12.2,95.8-63.3,251.5-89,326.1c14.3-5.8,31.5-8.4,49.9-2.1c43.4,15,55.8,50.9,56.5,79.3c11-2.1,24.8-2.5,39,2.8
	c22.6,8.5,39.6,28.8,50.5,60.3c26.9,77.7,15.3,122.6,2,174.6c-1.7,6.8-3.5,13.7-5.3,20.9c-26.6,109.3-103.7,212.6-120.3,234l-3,97.7
	C739.1,1143.9,732.7,1150.1,724.8,1150z M443,1121.2h267.9l2.8-88.4c0.1-3.1,1.2-6.2,3.2-8.6c0.9-1.1,90-112.8,117.7-226.5
	c1.8-7.3,3.6-14.4,5.4-21.3c13.2-51.4,22.8-88.6-1.3-158c-7.9-22.9-19.1-37.2-33.2-42.7c-18.8-7.2-38.1,3.3-38.3,3.4
	c-7,3.9-15.8,1.4-19.7-5.6c-1.8-3.1-2.3-6.8-1.5-10.3c1.2-5.4,10.7-53.6-35.4-69.5c-29.8-10.2-57.8,21.1-58.1,21.5
	c-5.3,6-14.4,6.6-20.3,1.3c-4.5-3.9-6.1-10.2-4-15.8c0.9-2.4,86.5-238.4,102.3-361.9c4.3-33.5-16-55.2-38.2-59.3
	c-22.7-4.2-53.6,9.4-66.2,61.4c-10.7,43.9-86.8,348-109.2,404.6c-2.9,7.4-11.3,11.1-18.7,8.1c-5.1-2-8.6-6.7-9.1-12.1
	c-0.2-2.6-23.3-265.1-38.9-402.3c-5.1-45.1-30.7-59.6-50.7-58.2c-25.2,1.7-50.3,27.5-49.4,73.6c1.6,86,19,380.2,19.1,383.2
	c0.1,4,0.5,82.1-21,228.4c-15.3,104.2,98.9,246.8,100,248.3c2.3,2.9,3.5,6.6,3.1,10.3L443,1121.2z"/>
<path class="st0" d="M641.6,505.7c0,0-105.6,207-28.8,235.8s76.8-28.8,92.8-57.6S760,566.5,760,566.5s-68.5,140.9-71.1,172.3
	c-3.9,46.5,52.6,63.2,75,44s48-83.2,48-83.2l22-15.7"/>
<g class="st1">
	<path d="M641.6,505.7c0,0-105.6,207-28.8,235.8s76.8-28.8,92.8-57.6S760,566.5,760,566.5s-68.5,140.9-71.1,172.3
		c-3.9,46.5,52.6,63.2,75,44s48-83.2,48-83.2l22-15.7"/>
</g>
<path class="st2" d="M739.7,805.1c-11-0.1-21.9-2.7-31.7-7.8c-16.8-8.6-28-22.8-32-39.7c-0.7,0.4-1.5,0.7-2.2,1.1
	c-17,7.7-38.5,6.5-66-3.8c-14.7-5.5-25.6-16.6-31.6-32c-25.9-66.7,44.5-208,52.6-223.9c3.5-7.1,12.2-10.1,19.3-6.6
	s10.1,12.2,6.6,19.3c-0.1,0.1-0.1,0.2-0.2,0.4c-20.4,40-69.4,154-51.4,200.3c3,7.8,7.8,12.7,14.8,15.4c19.6,7.3,34.3,8.9,43.9,4.5
	c11.2-5.1,16.5-19.2,22-34.2c2.7-7.3,5.5-14.8,9.2-21.5c1.8-3.3,4-7.5,6.4-12.3c19.3-45.8,43.4-95.6,47.6-104.4
	c3.6-7.1,12.3-9.9,19.4-6.3c6.7,3.4,9.7,11.4,6.8,18.3c-1.4,3.2-29.6,68.2-47.6,104.4c-12.3,29.1-21.5,53.8-22.3,63.4
	c-1.6,18.8,10.5,27.9,17.8,31.6c11.8,6,26.5,6.2,33.4,0.2c14.3-12.3,34.6-54.1,44-77.6c1-2.6,2.8-4.8,5-6.4l22-15.7
	c6.5-4.6,15.5-3.1,20.1,3.3s3.1,15.5-3.3,20.1L823.7,709c-6.5,15.5-28.6,66.2-50.4,84.8C764.5,801.3,752.5,805.1,739.7,805.1z"/>
<path class="st0" d="M450.7,851.8c0,0,25.1-48,62.6-54.3c125.3-20.9,137.7-165.8,8.4-146.1C329.6,680.6,338,772.5,338,772.5"/>
<g class="st1">
	<path d="M450.7,851.8c0,0,25.1-48,62.6-54.3c125.3-20.9,137.7-165.8,8.4-146.1C329.6,680.6,338,772.5,338,772.5"/>
</g>
<path class="st2" d="M450.7,866.2c-8,0-14.4-6.5-14.4-14.4c0-2.3,0.6-4.6,1.6-6.6c1.2-2.2,28.9-54.5,73-61.8
	c60.7-10.1,92.5-52.1,87.2-85.3c-4.2-26.3-32.7-38.7-74.3-32.4c-92.5,14.1-134.3,42.8-153.1,64.3c-19.2,22.1-18.4,40.6-18.4,41.4
	c0.5,7.9-5.5,14.7-13.4,15.3c-7.8,0.6-14.7-5.2-15.4-13c-0.4-4.3-7.2-105.7,195.9-136.7c70.7-10.8,101.9,23.7,107.1,56.4
	c7.5,46.7-32.8,105.2-111,118.2c-24.8,4.2-46.1,35.2-52.2,46.8C461,863.2,456.1,866.2,450.7,866.2z"/>
</svg>
